<svg xmlns="http://www.w3.org/2000/svg" width="100%" viewBox="0 0 20 4.6709555"><style> * { vector-effect: non-scaling-stroke; } </style><g transform="translate(0, 4.6709555)"><path d="M 0 -0.1709555 L 20 -0.1709555" fill="none" stroke="#000" stroke-width="1" stroke-linecap="round"/><path d="M 20 -0.1709555 L 20 -4.6709555" fill="none" stroke="#000" stroke-width="1" stroke-linecap="round"/><path d="M 20 -4.6709555 L 0 -4.6709555" fill="none" stroke="#000" stroke-width="1" stroke-linecap="round"/><path d="M 0 -4.6709555 L 0 -0.1709555" fill="none" stroke="#000" stroke-width="1" stroke-linecap="round"/><path d="M 5.30312991 -4.25345935 L 5.738977531 -4.25345935" fill="none" stroke="#f0f" stroke-width="1" stroke-linecap="round"/><path d="M 5.738977531 -4.25345935 L 5.738977531 -3.333489845" fill="none" stroke="#f0f" stroke-width="1" stroke-linecap="round"/><path d="M 5.738977531 -3.333489845 L 5.30312991 -3.333489845" fill="none" stroke="#f0f" stroke-width="1" stroke-linecap="round"/><path d="M 5.30312991 -3.333489845 L 5.30312991 -4.25345935" fill="none" stroke="#f0f" stroke-width="1" stroke-linecap="round"/><path d="M 5.768840101 -2.163859114 L 5.288252583 -2.163859114" fill="none" stroke="#f0f" stroke-width="1" stroke-linecap="round"/><path d="M 5.288252583 -2.163859114 L 5.288252583 -2.911679153" fill="none" stroke="#f0f" stroke-width="1" stroke-linecap="round"/><path d="M 5.288252583 -2.911679153 L 5.768840101 -2.911679153" fill="none" stroke="#f0f" stroke-width="1" stroke-linecap="round"/><path d="M 5.768840101 -2.911679153 L 5.768840101 -2.163859114" fill="none" stroke="#f0f" stroke-width="1" stroke-linecap="round"/><path d="M 18.94425129 -3.311724023 L 18.325598225 -3.311724023" fill="none" stroke="#000" stroke-width="1" stroke-linecap="round"/><path d="M 18.325598225 -3.311724023 A 0.20817126200000002 0.20817126200000002 0 0 0 18.325598225 -2.895381498" fill="none" stroke="#000" stroke-width="1" stroke-linecap="round"/><path d="M 18.325598225 -2.895381498 L 18.792744428 -3.081473984" fill="none" stroke="#000" stroke-width="1" stroke-linecap="round"/><path d="M 18.792744428 -3.081473984 L 18.94425129 -3.311724023" fill="none" stroke="#000" stroke-width="1" stroke-linecap="round"/><path d="M 5.299028088 -1.73499402 L 5.742978889 -1.73499402" fill="none" stroke="#f0f" stroke-width="1" stroke-linecap="round"/><path d="M 5.742978889 -1.73499402 L 5.742978889 -1.209149382" fill="none" stroke="#f0f" stroke-width="1" stroke-linecap="round"/><path d="M 5.742978889 -1.209149382 L 5.299028088 -1.209149382" fill="none" stroke="#f0f" stroke-width="1" stroke-linecap="round"/><path d="M 5.299028088 -1.209149382 L 5.299028088 -1.73499402" fill="none" stroke="#f0f" stroke-width="1" stroke-linecap="round"/><path d="M 3.001461729 -0.672580289 L 3.996663984 -0.672580289" fill="none" stroke="#f0f" stroke-width="1" stroke-linecap="round"/><path d="M 3.996663984 -0.672580289 L 3.996663984 -0.49555627" fill="none" stroke="#f0f" stroke-width="1" stroke-linecap="round"/><path d="M 3.996663984 -0.49555627 L 3.001461729 -0.49555627" fill="none" stroke="#f0f" stroke-width="1" stroke-linecap="round"/><path d="M 3.001461729 -0.49555627 L 3.001461729 -0.672580289" fill="none" stroke="#f0f" stroke-width="1" stroke-linecap="round"/><path d="M 3.933611917 -1.032299777 L 5.106815415 -1.032299777" fill="none" stroke="#f0f" stroke-width="1" stroke-linecap="round"/><path d="M 5.106815415 -1.032299777 L 5.106815415 -0.899484287" fill="none" stroke="#f0f" stroke-width="1" stroke-linecap="round"/><path d="M 5.106815415 -0.899484287 L 3.933611917 -0.899484287" fill="none" stroke="#f0f" stroke-width="1" stroke-linecap="round"/><path d="M 3.933611917 -0.899484287 L 3.933611917 -1.032299777" fill="none" stroke="#f0f" stroke-width="1" stroke-linecap="round"/><path d="M 8.416838115 -3.205003555 L 8.496334961 -3.205003555" fill="none" stroke="#f0f" stroke-width="1" stroke-linecap="round"/><path d="M 8.496334961 -3.205003555 L 8.496334961 -1.388971829" fill="none" stroke="#f0f" stroke-width="1" stroke-linecap="round"/><path d="M 8.496334961 -1.388971829 L 8.416838115 -1.388971829" fill="none" stroke="#f0f" stroke-width="1" stroke-linecap="round"/><path d="M 8.416838115 -1.388971829 L 8.416838115 -3.205003555" fill="none" stroke="#f0f" stroke-width="1" stroke-linecap="round"/><path d="M 8.814747743 -2.409740555 L 9.513873727 -2.409740555" fill="none" stroke="#f0f" stroke-width="1" stroke-linecap="round"/><path d="M 9.513873727 -2.409740555 L 9.513873727 -2.260323128" fill="none" stroke="#f0f" stroke-width="1" stroke-linecap="round"/><path d="M 9.513873727 -2.260323128 L 8.814747743 -2.260323128" fill="none" stroke="#f0f" stroke-width="1" stroke-linecap="round"/><path d="M 8.814747743 -2.260323128 L 8.814747743 -2.409740555" fill="none" stroke="#f0f" stroke-width="1" stroke-linecap="round"/><path d="M 8.811058424 -1.727216507 L 9.506495088 -1.727216507" fill="none" stroke="#f0f" stroke-width="1" stroke-linecap="round"/><path d="M 9.506495088 -1.727216507 L 9.506495088 -1.581488399" fill="none" stroke="#f0f" stroke-width="1" stroke-linecap="round"/><path d="M 9.506495088 -1.581488399 L 8.811058424 -1.581488399" fill="none" stroke="#f0f" stroke-width="1" stroke-linecap="round"/><path d="M 8.811058424 -1.581488399 L 8.811058424 -1.727216507" fill="none" stroke="#f0f" stroke-width="1" stroke-linecap="round"/><path d="M 8.179315104 -1.305589799 L 8.87682701 -1.305589799" fill="none" stroke="#f0f" stroke-width="1" stroke-linecap="round"/><path d="M 8.87682701 -1.305589799 L 8.87682701 -1.161475769" fill="none" stroke="#f0f" stroke-width="1" stroke-linecap="round"/><path d="M 8.87682701 -1.161475769 L 8.179315104 -1.161475769" fill="none" stroke="#f0f" stroke-width="1" stroke-linecap="round"/><path d="M 8.179315104 -1.161475769 L 8.179315104 -1.305589799" fill="none" stroke="#f0f" stroke-width="1" stroke-linecap="round"/><path d="M 9.489893152 -1.902459168 L 10.166883221 -1.902459168" fill="none" stroke="#f0f" stroke-width="1" stroke-linecap="round"/><path d="M 10.166883221 -1.902459168 L 10.166883221 -1.754886401" fill="none" stroke="#f0f" stroke-width="1" stroke-linecap="round"/><path d="M 10.166883221 -1.754886401 L 9.489893152 -1.754886401" fill="none" stroke="#f0f" stroke-width="1" stroke-linecap="round"/><path d="M 9.489893152 -1.754886401 L 9.489893152 -1.902459168" fill="none" stroke="#f0f" stroke-width="1" stroke-linecap="round"/><path d="M 10.155815264 -1.22177978 L 9.488048493 -1.22177978" fill="none" stroke="#f0f" stroke-width="1" stroke-linecap="round"/><path d="M 9.488048493 -1.22177978 L 9.488048493 -1.076051672" fill="none" stroke="#f0f" stroke-width="1" stroke-linecap="round"/><path d="M 9.488048493 -1.076051672 L 10.155815264 -1.076051672" fill="none" stroke="#f0f" stroke-width="1" stroke-linecap="round"/><path d="M 10.155815264 -1.076051672 L 10.155815264 -1.22177978" fill="none" stroke="#f0f" stroke-width="1" stroke-linecap="round"/><path d="M 9.156009767 -2.151488212 L 9.836689155 -2.151488212" fill="none" stroke="#f0f" stroke-width="1" stroke-linecap="round"/><path d="M 9.836689155 -2.151488212 L 9.836689155 -2.013138743" fill="none" stroke="#f0f" stroke-width="1" stroke-linecap="round"/><path d="M 9.836689155 -2.013138743 L 9.156009767 -2.013138743" fill="none" stroke="#f0f" stroke-width="1" stroke-linecap="round"/><path d="M 9.156009767 -2.013138743 L 9.156009767 -2.151488212" fill="none" stroke="#f0f" stroke-width="1" stroke-linecap="round"/><path d="M 8.824445819 -1.038203869 L 9.497660977 -1.038203869" fill="none" stroke="#f0f" stroke-width="1" stroke-linecap="round"/><path d="M 9.497660977 -1.038203869 L 9.497660977 -0.902200807" fill="none" stroke="#f0f" stroke-width="1" stroke-linecap="round"/><path d="M 9.497660977 -0.902200807 L 8.824445819 -0.902200807" fill="none" stroke="#f0f" stroke-width="1" stroke-linecap="round"/><path d="M 8.824445819 -0.902200807 L 8.824445819 -1.038203869" fill="none" stroke="#f0f" stroke-width="1" stroke-linecap="round"/><path d="M 9.156009767 -1.465274845 L 9.836689155 -1.465274845" fill="none" stroke="#f0f" stroke-width="1" stroke-linecap="round"/><path d="M 9.836689155 -1.465274845 L 9.836689155 -1.334304015" fill="none" stroke="#f0f" stroke-width="1" stroke-linecap="round"/><path d="M 9.836689155 -1.334304015 L 9.156009767 -1.334304015" fill="none" stroke="#f0f" stroke-width="1" stroke-linecap="round"/><path d="M 9.156009767 -1.334304015 L 9.156009767 -1.465274845" fill="none" stroke="#f0f" stroke-width="1" stroke-linecap="round"/><path d="M 10.156566202 -0.407588343 L 9.485995549 -0.407588343" fill="none" stroke="#f0f" stroke-width="1" stroke-linecap="round"/><path d="M 9.485995549 -0.407588343 L 9.485995549 -0.535091214" fill="none" stroke="#f0f" stroke-width="1" stroke-linecap="round"/><path d="M 9.485995549 -0.535091214 L 10.156566202 -0.535091214" fill="none" stroke="#f0f" stroke-width="1" stroke-linecap="round"/><path d="M 10.156566202 -0.535091214 L 10.156566202 -0.407588343" fill="none" stroke="#f0f" stroke-width="1" stroke-linecap="round"/><path d="M 9.828364368 -0.661413502 L 9.162516043 -0.661413502" fill="none" stroke="#f0f" stroke-width="1" stroke-linecap="round"/><path d="M 9.162516043 -0.661413502 L 9.162516043 -0.785374627" fill="none" stroke="#f0f" stroke-width="1" stroke-linecap="round"/><path d="M 9.162516043 -0.785374627 L 9.828364368 -0.785374627" fill="none" stroke="#f0f" stroke-width="1" stroke-linecap="round"/><path d="M 9.828364368 -0.785374627 L 9.828364368 -0.661413502" fill="none" stroke="#f0f" stroke-width="1" stroke-linecap="round"/><path d="M 4.161508541 -0.723164345 L 4.816023277 -0.723164345" fill="none" stroke="#f0f" stroke-width="1" stroke-linecap="round"/><path d="M 4.816023277 -0.723164345 L 4.816023277 -0.840278093" fill="none" stroke="#f0f" stroke-width="1" stroke-linecap="round"/><path d="M 4.816023277 -0.840278093 L 4.161508541 -0.840278093" fill="none" stroke="#f0f" stroke-width="1" stroke-linecap="round"/><path d="M 4.161508541 -0.840278093 L 4.161508541 -0.723164345" fill="none" stroke="#f0f" stroke-width="1" stroke-linecap="round"/><path d="M 3.20603604 -0.430444159 L 3.798218572 -0.430444159" fill="none" stroke="#f0f" stroke-width="1" stroke-linecap="round"/><path d="M 3.798218572 -0.430444159 L 3.798218572 -0.314292601" fill="none" stroke="#f0f" stroke-width="1" stroke-linecap="round"/><path d="M 3.798218572 -0.314292601 L 3.20603604 -0.314292601" fill="none" stroke="#f0f" stroke-width="1" stroke-linecap="round"/><path d="M 3.20603604 -0.314292601 L 3.20603604 -0.430444159" fill="none" stroke="#f0f" stroke-width="1" stroke-linecap="round"/><path d="M 4.31356752 -0.541826929 L 4.715909912 -0.541826929" fill="none" stroke="#f0f" stroke-width="1" stroke-linecap="round"/><path d="M 4.715909912 -0.541826929 L 4.715909912 -0.661774074" fill="none" stroke="#f0f" stroke-width="1" stroke-linecap="round"/><path d="M 4.715909912 -0.661774074 L 4.31356752 -0.661774074" fill="none" stroke="#f0f" stroke-width="1" stroke-linecap="round"/><path d="M 4.31356752 -0.661774074 L 4.31356752 -0.541826929" fill="none" stroke="#f0f" stroke-width="1" stroke-linecap="round"/><path d="M 10.913469825 -1.499061605 L 10.933994697 -1.466107943" fill="none" stroke="#000" stroke-width="1" stroke-linecap="round"/><path d="M 10.933994697 -1.466107943 L 10.946297432 -1.460962592" fill="none" stroke="#000" stroke-width="1" stroke-linecap="round"/><path d="M 10.946297432 -1.460962592 L 10.962680765 -1.478480201" fill="none" stroke="#000" stroke-width="1" stroke-linecap="round"/><path d="M 10.962680765 -1.478480201 L 10.961300252 -1.495303958" fill="none" stroke="#000" stroke-width="1" stroke-linecap="round"/><path d="M 10.961300252 -1.495303958 L 10.940775379 -1.52825762" fill="none" stroke="#000" stroke-width="1" stroke-linecap="round"/><path d="M 10.940775379 -1.52825762 L 10.928472644 -1.533402971" fill="none" stroke="#000" stroke-width="1" stroke-linecap="round"/><path d="M 10.928472644 -1.533402971 L 10.912089311 -1.515885362" fill="none" stroke="#000" stroke-width="1" stroke-linecap="round"/><path d="M 10.912089311 -1.515885362 L 10.913469825 -1.499061605" fill="none" stroke="#000" stroke-width="1" stroke-linecap="round"/><path d="M 11.222531817 -1.985456573 L 11.254541087 -1.96348794" fill="none" stroke="#000" stroke-width="1" stroke-linecap="round"/><path d="M 11.254541087 -1.96348794 L 11.267874713 -1.963703221" fill="none" stroke="#000" stroke-width="1" stroke-linecap="round"/><path d="M 11.267874713 -1.963703221 L 11.27586632 -1.986317694" fill="none" stroke="#000" stroke-width="1" stroke-linecap="round"/><path d="M 11.27586632 -1.986317694 L 11.267860433 -2.00117873" fill="none" stroke="#000" stroke-width="1" stroke-linecap="round"/><path d="M 11.267860433 -2.00117873 L 11.235851163 -2.023147363" fill="none" stroke="#000" stroke-width="1" stroke-linecap="round"/><path d="M 11.235851163 -2.023147363 L 11.222517537 -2.022932083" fill="none" stroke="#000" stroke-width="1" stroke-linecap="round"/><path d="M 11.222517537 -2.022932083 L 11.214525929 -2.000317609" fill="none" stroke="#000" stroke-width="1" stroke-linecap="round"/><path d="M 11.214525929 -2.000317609 L 11.222531817 -1.985456573" fill="none" stroke="#000" stroke-width="1" stroke-linecap="round"/><path d="M 10.58001033 -0.760641437 L 10.577349759 -0.723235937" fill="none" stroke="#000" stroke-width="1" stroke-linecap="round"/><path d="M 10.577349759 -0.723235937 L 10.583108612 -0.710294743" fill="none" stroke="#000" stroke-width="1" stroke-linecap="round"/><path d="M 10.583108612 -0.710294743 L 10.603045743 -0.708876658" fill="none" stroke="#000" stroke-width="1" stroke-linecap="round"/><path d="M 10.603045743 -0.708876658 L 10.610578311 -0.720872463" fill="none" stroke="#000" stroke-width="1" stroke-linecap="round"/><path d="M 10.610578311 -0.720872463 L 10.613238882 -0.758277962" fill="none" stroke="#000" stroke-width="1" stroke-linecap="round"/><path d="M 10.613238882 -0.758277962 L 10.607480029 -0.771219157" fill="none" stroke="#000" stroke-width="1" stroke-linecap="round"/><path d="M 10.607480029 -0.771219157 L 10.587542898 -0.772637241" fill="none" stroke="#000" stroke-width="1" stroke-linecap="round"/><path d="M 10.587542898 -0.772637241 L 10.58001033 -0.760641437" fill="none" stroke="#000" stroke-width="1" stroke-linecap="round"/><path d="M 11.684319965 -0.343908794 L 11.747260204 -0.401018574" fill="none" stroke="#000" stroke-width="1" stroke-linecap="round"/><path d="M 11.747260204 -0.401018574 L 11.721949866 -0.330418384" fill="none" stroke="#000" stroke-width="1" stroke-linecap="round"/><path d="M 11.721949866 -0.330418384 L 11.711459827 -0.320900087" fill="none" stroke="#000" stroke-width="1" stroke-linecap="round"/><path d="M 11.711459827 -0.320900087 L 11.686373226 -0.329893694" fill="none" stroke="#000" stroke-width="1" stroke-linecap="round"/><path d="M 11.686373226 -0.329893694 L 11.684319965 -0.343908794" fill="none" stroke="#000" stroke-width="1" stroke-linecap="round"/><path d="M 11.743783498 -0.864141885 L 11.745522438 -0.876520338" fill="none" stroke="#000" stroke-width="1" stroke-linecap="round"/><path d="M 11.745522438 -0.876520338 L 11.738924723 -0.877447193" fill="none" stroke="#000" stroke-width="1" stroke-linecap="round"/><path d="M 11.738924723 -0.877447193 L 11.737185783 -0.86506874" fill="none" stroke="#000" stroke-width="1" stroke-linecap="round"/><path d="M 11.737185783 -0.86506874 L 11.743783498 -0.864141885" fill="none" stroke="#000" stroke-width="1" stroke-linecap="round"/><path d="M 11.754790092 -0.301546267 L 11.760554901 -0.31263757" fill="none" stroke="#000" stroke-width="1" stroke-linecap="round"/><path d="M 11.760554901 -0.31263757 L 11.754643236 -0.315710213" fill="none" stroke="#000" stroke-width="1" stroke-linecap="round"/><path d="M 11.754643236 -0.315710213 L 11.748878428 -0.30461891" fill="none" stroke="#000" stroke-width="1" stroke-linecap="round"/><path d="M 11.748878428 -0.30461891 L 11.754790092 -0.301546267" fill="none" stroke="#000" stroke-width="1" stroke-linecap="round"/><path d="M 1.1 -1.1709555 L 1.1 -3.6709555" fill="none" stroke="#f00" stroke-width="1" stroke-linecap="round"/><path d="M 1.2 -1.1709555 L 1.2 -3.6709555" fill="none" stroke="#ff0" stroke-width="1" stroke-linecap="round"/><path d="M 1.3 -1.1709555 L 1.3 -3.6709555" fill="none" stroke="#0f0" stroke-width="1" stroke-linecap="round"/><path d="M 1.4 -1.1709555 L 1.4 -3.6709555" fill="none" stroke="#0ff" stroke-width="1" stroke-linecap="round"/><path d="M 1.5 -1.1709555 L 1.5 -3.6709555" fill="none" stroke="#000" stroke-width="1" stroke-linecap="round"/><path d="M 1.6 -1.1709555 L 1.6 -3.6709555" fill="none" stroke="#f0f" stroke-width="1" stroke-linecap="round"/><path d="M 1.7 -1.1709555 L 1.7 -3.6709555" fill="none" stroke="#000" stroke-width="1" stroke-linecap="round"/><path d="M 1.8 -1.1709555 L 1.8 -3.6709555" fill="none" stroke="#0f0" stroke-width="1" stroke-linecap="round"/><path d="M 1.9 -1.1709555 L 1.9 -3.6709555" fill="none" stroke="#f00" stroke-width="1" stroke-linecap="round"/><path d="M 2 -1.1709555 L 2 -3.6709555" fill="none" stroke="#000" stroke-width="1" stroke-linecap="round"/><path d="M 2.1 -1.1709555 L 2.1 -3.6709555" fill="none" stroke="#000" stroke-width="2" stroke-linecap="round" stroke-dasharray="5,5"/><path d="M 2.2 -1.1709555 L 2.2 -3.6709555" fill="none" stroke="#000" stroke-width="2" stroke-linecap="round" stroke-dasharray="1,5"/><path d="M 2.3 -1.1709555 L 2.3 -3.6709555" fill="none" stroke="#000" stroke-width="2" stroke-linecap="round" stroke-dasharray="5,5,1,5"/><path d="M 5.90063356 -1.194882039 L 5.97264907 -1.316481999" fill="none" stroke="#f0f" stroke-width="1" stroke-linecap="round"/><path d="M 7.017966104 -0.518106486 L 8.033266741 -0.729135543" fill="none" stroke="#f0f" stroke-width="1" stroke-linecap="round"/><path d="M 10.059566016 -0.64276772 L 10.089281383 -0.657824933" fill="none" stroke="#000" stroke-width="1" stroke-linecap="round"/><path d="M 10.089281383 -0.657824933 L 10.08957447 -0.671986607" fill="none" stroke="#000" stroke-width="1" stroke-linecap="round"/><path d="M 10.08957447 -0.671986607 L 10.078274497 -0.694287069" fill="none" stroke="#000" stroke-width="1" stroke-linecap="round"/><path d="M 10.078274497 -0.694287069 L 10.066681438 -0.702425858" fill="none" stroke="#000" stroke-width="1" stroke-linecap="round"/><path d="M 10.066681438 -0.702425858 L 10.036966072 -0.687368645" fill="none" stroke="#000" stroke-width="1" stroke-linecap="round"/><path d="M 10.036966072 -0.687368645 L 10.082165961 -0.598166795" fill="none" stroke="#000" stroke-width="1" stroke-linecap="round"/><path d="M 10.071452163 -0.648790605 L 10.1178244 -0.616235451" fill="none" stroke="#000" stroke-width="1" stroke-linecap="round"/><path d="M 10.104370779 -0.679055829 L 10.122621855 -0.68720435" fill="none" stroke="#000" stroke-width="1" stroke-linecap="round"/><path d="M 10.122621855 -0.68720435 L 10.133801557 -0.678506467" fill="none" stroke="#000" stroke-width="1" stroke-linecap="round"/><path d="M 10.133801557 -0.678506467 L 10.1541856 -0.632850243" fill="none" stroke="#000" stroke-width="1" stroke-linecap="round"/><path d="M 10.160269292 -0.635566417 L 10.135934525 -0.624701722" fill="none" stroke="#000" stroke-width="1" stroke-linecap="round"/><path d="M 10.135934525 -0.624701722 L 10.124754822 -0.633399605" fill="none" stroke="#000" stroke-width="1" stroke-linecap="round"/><path d="M 10.124754822 -0.633399605 L 10.119658811 -0.644813661" fill="none" stroke="#000" stroke-width="1" stroke-linecap="round"/><path d="M 10.119658811 -0.644813661 L 10.120646493 -0.65894389" fill="none" stroke="#000" stroke-width="1" stroke-linecap="round"/><path d="M 10.120646493 -0.65894389 L 10.138897568 -0.667092411" fill="none" stroke="#000" stroke-width="1" stroke-linecap="round"/><path d="M 10.201974724 -0.67870863 L 10.198196109 -0.650632346" fill="none" stroke="#000" stroke-width="1" stroke-linecap="round"/><path d="M 10.198196109 -0.650632346 L 10.185706226 -0.64598924" fill="none" stroke="#000" stroke-width="1" stroke-linecap="round"/><path d="M 10.185706226 -0.64598924 L 10.175105649 -0.655384275" fill="none" stroke="#000" stroke-width="1" stroke-linecap="round"/><path d="M 10.175105649 -0.655384275 L 10.162038746 -0.690534041" fill="none" stroke="#000" stroke-width="1" stroke-linecap="round"/><path d="M 10.162038746 -0.690534041 L 10.163928053 -0.704572183" fill="none" stroke="#000" stroke-width="1" stroke-linecap="round"/><path d="M 10.163928053 -0.704572183 L 10.176417937 -0.709215289" fill="none" stroke="#000" stroke-width="1" stroke-linecap="round"/><path d="M 10.176417937 -0.709215289 L 10.197619089 -0.690425218" fill="none" stroke="#000" stroke-width="1" stroke-linecap="round"/><path d="M 10.175840917 -0.749008161 L 10.210685992 -0.655275453" fill="none" stroke="#000" stroke-width="1" stroke-linecap="round"/><path d="M 10.223608356 -0.751861104 L 10.224988841 -0.747381492" fill="none" stroke="#000" stroke-width="1" stroke-linecap="round"/><path d="M 10.224603921 -0.726007714 L 10.230970942 -0.727969843" fill="none" stroke="#000" stroke-width="1" stroke-linecap="round"/><path d="M 10.230970942 -0.727969843 L 10.249377406 -0.668241692" fill="none" stroke="#000" stroke-width="1" stroke-linecap="round"/><path d="M 10.260250685 -0.736911111 L 10.272570837 -0.688452739" fill="none" stroke="#000" stroke-width="1" stroke-linecap="round"/><path d="M 10.272570837 -0.688452739 L 10.282107954 -0.677979806" fill="none" stroke="#000" stroke-width="1" stroke-linecap="round"/><path d="M 10.282107954 -0.677979806 L 10.29502211 -0.681263127" fill="none" stroke="#000" stroke-width="1" stroke-linecap="round"/><path d="M 10.29502211 -0.681263127 L 10.30177619 -0.708775634" fill="none" stroke="#000" stroke-width="1" stroke-linecap="round"/><path d="M 10.307936266 -0.684546447 L 10.292536076 -0.745119413" fill="none" stroke="#000" stroke-width="1" stroke-linecap="round"/><path d="M 10.37206049 -0.748531056 L 10.363368671 -0.759715473" fill="none" stroke="#000" stroke-width="1" stroke-linecap="round"/><path d="M 10.363368671 -0.759715473 L 10.343672503 -0.756315312" fill="none" stroke="#000" stroke-width="1" stroke-linecap="round"/><path d="M 10.343672503 -0.756315312 L 10.339233543 -0.742864121" fill="none" stroke="#000" stroke-width="1" stroke-linecap="round"/><path d="M 10.339233543 -0.742864121 L 10.378439779 -0.711577644" fill="none" stroke="#000" stroke-width="1" stroke-linecap="round"/><path d="M 10.378439779 -0.711577644 L 10.374000819 -0.698126453" fill="none" stroke="#000" stroke-width="1" stroke-linecap="round"/><path d="M 10.374000819 -0.698126453 L 10.35430465 -0.694726292" fill="none" stroke="#000" stroke-width="1" stroke-linecap="round"/><path d="M 10.35430465 -0.694726292 L 10.345612831 -0.705910709" fill="none" stroke="#000" stroke-width="1" stroke-linecap="round"/><path d="M 10.42868383 -1.174539397 L 10.465481012 -1.190158874" fill="none" stroke="#000" stroke-width="1" stroke-linecap="round"/><path d="M 10.465481012 -1.190158874 L 10.471039416 -1.206097781" fill="none" stroke="#000" stroke-width="1" stroke-linecap="round"/><path d="M 10.471039416 -1.206097781 L 10.467437351 -1.231727805" fill="none" stroke="#000" stroke-width="1" stroke-linecap="round"/><path d="M 10.467437351 -1.231727805 L 10.458276882 -1.241418921" fill="none" stroke="#000" stroke-width="1" stroke-linecap="round"/><path d="M 10.458276882 -1.241418921 L 10.421479701 -1.225799444" fill="none" stroke="#000" stroke-width="1" stroke-linecap="round"/><path d="M 10.421479701 -1.225799444 L 10.43588796 -1.12327935" fill="none" stroke="#000" stroke-width="1" stroke-linecap="round"/><path d="M 10.480044578 -1.142022722 L 10.443402703 -1.180787188" fill="none" stroke="#000" stroke-width="1" stroke-linecap="round"/><path d="M 10.511684215 -0.79889098 L 10.504576834 -0.811143492" fill="none" stroke="#000" stroke-width="1" stroke-linecap="round"/><path d="M 10.504576834 -0.811143492 L 10.484602243 -0.810425247" fill="none" stroke="#000" stroke-width="1" stroke-linecap="round"/><path d="M 10.484602243 -0.810425247 L 10.472184217 -0.784962564" fill="none" stroke="#000" stroke-width="1" stroke-linecap="round"/><path d="M 10.472184217 -0.784962564 L 10.473980952 -0.734994857" fill="none" stroke="#000" stroke-width="1" stroke-linecap="round"/><path d="M 10.473980952 -0.734994857 L 10.488195713 -0.710489833" fill="none" stroke="#000" stroke-width="1" stroke-linecap="round"/><path d="M 10.488195713 -0.710489833 L 10.508170304 -0.711208078" fill="none" stroke="#000" stroke-width="1" stroke-linecap="round"/><path d="M 10.508170304 -0.711208078 L 10.514379317 -0.72393942" fill="none" stroke="#000" stroke-width="1" stroke-linecap="round"/><path d="M 10.486992637 -1.213389876 L 10.508665934 -1.223663553" fill="none" stroke="#000" stroke-width="1" stroke-linecap="round"/><path d="M 10.508665934 -1.223663553 L 10.518218037 -1.214358219" fill="none" stroke="#000" stroke-width="1" stroke-linecap="round"/><path d="M 10.518218037 -1.214358219 L 10.52752872 -1.163438644" fill="none" stroke="#000" stroke-width="1" stroke-linecap="round"/><path d="M 10.534753153 -1.166863203 L 10.505855424 -1.153164967" fill="none" stroke="#000" stroke-width="1" stroke-linecap="round"/><path d="M 10.505855424 -1.153164967 L 10.496303321 -1.162470301" fill="none" stroke="#000" stroke-width="1" stroke-linecap="round"/><path d="M 10.496303321 -1.162470301 L 10.49397565 -1.175200195" fill="none" stroke="#000" stroke-width="1" stroke-linecap="round"/><path d="M 10.49397565 -1.175200195 L 10.498872411 -1.191354648" fill="none" stroke="#000" stroke-width="1" stroke-linecap="round"/><path d="M 10.498872411 -1.191354648 L 10.520545708 -1.201628325" fill="none" stroke="#000" stroke-width="1" stroke-linecap="round"/><path d="M 10.588394458 -1.236543171 L 10.568318146 -1.254100773" fill="none" stroke="#000" stroke-width="1" stroke-linecap="round"/><path d="M 10.568318146 -1.254100773 L 10.554258048 -1.24648541" fill="none" stroke="#000" stroke-width="1" stroke-linecap="round"/><path d="M 10.554258048 -1.24648541 L 10.550236106 -1.230091246" fill="none" stroke="#000" stroke-width="1" stroke-linecap="round"/><path d="M 10.550236106 -1.230091246 L 10.559260428 -1.192331799" fill="none" stroke="#000" stroke-width="1" stroke-linecap="round"/><path d="M 10.559260428 -1.192331799 L 10.569298584 -1.183552998" fill="none" stroke="#000" stroke-width="1" stroke-linecap="round"/><path d="M 10.569298584 -1.183552998 L 10.583358682 -1.191168361" fill="none" stroke="#000" stroke-width="1" stroke-linecap="round"/><path d="M 10.583358682 -1.191168361 L 10.591402565 -1.223956688" fill="none" stroke="#000" stroke-width="1" stroke-linecap="round"/><path d="M 10.551782447 -0.811356358 L 10.558442325 -0.811169482" fill="none" stroke="#000" stroke-width="1" stroke-linecap="round"/><path d="M 10.558442325 -0.811169482 L 10.55563743 -0.711208827" fill="none" stroke="#000" stroke-width="1" stroke-linecap="round"/><path d="M 10.59741878 -1.198783724 L 10.573353921 -1.299475582" fill="none" stroke="#000" stroke-width="1" stroke-linecap="round"/><path d="M 10.60194869 -0.732064787 L 10.58754043 -0.834584882" fill="none" stroke="#000" stroke-width="1" stroke-linecap="round"/><path d="M 10.58754043 -0.834584882 L 10.616822869 -0.79269652" fill="none" stroke="#000" stroke-width="1" stroke-linecap="round"/><path d="M 10.616822869 -0.79269652 L 10.631697048 -0.853328254" fill="none" stroke="#000" stroke-width="1" stroke-linecap="round"/><path d="M 10.631697048 -0.853328254 L 10.646105308 -0.750808159" fill="none" stroke="#000" stroke-width="1" stroke-linecap="round"/><path d="M 10.619046111 -1.312093517 L 10.620398633 -1.307432948" fill="none" stroke="#000" stroke-width="1" stroke-linecap="round"/><path d="M 10.644293187 -1.225096223 L 10.626259561 -1.287237147" fill="none" stroke="#000" stroke-width="1" stroke-linecap="round"/><path d="M 10.626259561 -1.287237147 L 10.619419696 -1.28309755" fill="none" stroke="#000" stroke-width="1" stroke-linecap="round"/><path d="M 10.645503927 -0.81856775 L 10.654313649 -0.767559116" fill="none" stroke="#000" stroke-width="1" stroke-linecap="round"/><path d="M 10.654313649 -0.767559116 L 10.66211682 -0.75980659" fill="none" stroke="#000" stroke-width="1" stroke-linecap="round"/><path d="M 10.66211682 -0.75980659 L 10.663773825 -0.758160339" fill="none" stroke="#000" stroke-width="1" stroke-linecap="round"/><path d="M 10.663773825 -0.758160339 L 10.678289314 -0.764867102" fill="none" stroke="#000" stroke-width="1" stroke-linecap="round"/><path d="M 10.678289314 -0.764867102 L 10.688399942 -0.797078182" fill="none" stroke="#000" stroke-width="1" stroke-linecap="round"/><path d="M 10.690686856 -0.748971082 L 10.685954188 -0.762321766" fill="none" stroke="#000" stroke-width="1" stroke-linecap="round"/><path d="M 10.685954188 -0.762321766 L 10.676011389 -0.763814606" fill="none" stroke="#000" stroke-width="1" stroke-linecap="round"/><path d="M 10.676011389 -0.763814606 L 10.666188237 -0.765289481" fill="none" stroke="#000" stroke-width="1" stroke-linecap="round"/><path d="M 10.666188237 -0.765289481 L 10.657743604 -0.753917274" fill="none" stroke="#000" stroke-width="1" stroke-linecap="round"/><path d="M 10.657743604 -0.753917274 L 10.652175658 -0.716832938" fill="none" stroke="#000" stroke-width="1" stroke-linecap="round"/><path d="M 10.652175658 -0.716832938 L 10.656908326 -0.703482255" fill="none" stroke="#000" stroke-width="1" stroke-linecap="round"/><path d="M 10.656908326 -0.703482255 L 10.676674277 -0.700514539" fill="none" stroke="#000" stroke-width="1" stroke-linecap="round"/><path d="M 10.676674277 -0.700514539 L 10.68511891 -0.711886746" fill="none" stroke="#000" stroke-width="1" stroke-linecap="round"/><path d="M 10.655734547 -1.305278916 L 10.672234216 -1.256215153" fill="none" stroke="#000" stroke-width="1" stroke-linecap="round"/><path d="M 10.672234216 -1.256215153 L 10.68301932 -1.248372101" fill="none" stroke="#000" stroke-width="1" stroke-linecap="round"/><path d="M 10.68301932 -1.248372101 L 10.696339692 -1.257217878" fill="none" stroke="#000" stroke-width="1" stroke-linecap="round"/><path d="M 10.696339692 -1.257217878 L 10.70141023 -1.290595537" fill="none" stroke="#000" stroke-width="1" stroke-linecap="round"/><path d="M 10.681792651 -0.835334657 L 10.692804803 -0.771573865" fill="none" stroke="#000" stroke-width="1" stroke-linecap="round"/><path d="M 10.689035478 -1.327393359 L 10.709660065 -1.266063656" fill="none" stroke="#000" stroke-width="1" stroke-linecap="round"/><path d="M 10.710384768 -0.695021629 L 10.731526484 -0.792761221" fill="none" stroke="#000" stroke-width="1" stroke-linecap="round"/><path d="M 10.740312927 -0.794183273 L 10.718988205 -0.895490844" fill="none" stroke="#000" stroke-width="1" stroke-linecap="round"/><path d="M 10.718988205 -0.895490844 L 10.711857459 -0.891875255" fill="none" stroke="#000" stroke-width="1" stroke-linecap="round"/><path d="M 10.749645942 -0.750474606 L 10.713027482 -0.707239078" fill="none" stroke="#000" stroke-width="1" stroke-linecap="round"/><path d="M 10.731336712 -0.728856842 L 10.742944269 -0.687978794" fill="none" stroke="#000" stroke-width="1" stroke-linecap="round"/><path d="M 10.750797474 -1.309080987 L 10.76207295 -1.301960906" fill="none" stroke="#000" stroke-width="1" stroke-linecap="round"/><path d="M 10.76207295 -1.301960906 L 10.781141886 -1.316509306" fill="none" stroke="#000" stroke-width="1" stroke-linecap="round"/><path d="M 10.781141886 -1.316509306 L 10.782579033 -1.333328319" fill="none" stroke="#000" stroke-width="1" stroke-linecap="round"/><path d="M 10.782579033 -1.333328319 L 10.73603998 -1.344989629" fill="none" stroke="#000" stroke-width="1" stroke-linecap="round"/><path d="M 10.73603998 -1.344989629 L 10.737477127 -1.361808643" fill="none" stroke="#000" stroke-width="1" stroke-linecap="round"/><path d="M 10.737477127 -1.361808643 L 10.756546062 -1.376357042" fill="none" stroke="#000" stroke-width="1" stroke-linecap="round"/><path d="M 10.756546062 -1.376357042 L 10.767821539 -1.369236961" fill="none" stroke="#000" stroke-width="1" stroke-linecap="round"/><path d="M 10.785460007 -0.888437035 L 10.75741369 -0.873070693" fill="none" stroke="#000" stroke-width="1" stroke-linecap="round"/><path d="M 10.804747 -0.841991384 L 10.800804274 -0.82557799" fill="none" stroke="#000" stroke-width="1" stroke-linecap="round"/><path d="M 10.800804274 -0.82557799 L 10.793792695 -0.821736404" fill="none" stroke="#000" stroke-width="1" stroke-linecap="round"/><path d="M 10.793792695 -0.821736404 L 10.783712262 -0.830466627" fill="none" stroke="#000" stroke-width="1" stroke-linecap="round"/><path d="M 10.783712262 -0.830466627 L 10.771436848 -0.880753864" fill="none" stroke="#000" stroke-width="1" stroke-linecap="round"/><path d="M 10.771436848 -0.880753864 L 10.765299141 -0.905897482" fill="none" stroke="#000" stroke-width="1" stroke-linecap="round"/><path d="M 10.802622558 -0.724377215 L 10.792366675 -0.688306911" fill="none" stroke="#000" stroke-width="1" stroke-linecap="round"/><path d="M 10.792366675 -0.688306911 L 10.782539556 -0.678105605" fill="none" stroke="#000" stroke-width="1" stroke-linecap="round"/><path d="M 10.782539556 -0.678105605 L 10.776131066 -0.679927733" fill="none" stroke="#000" stroke-width="1" stroke-linecap="round"/><path d="M 10.776131066 -0.679927733 L 10.773141203 -0.693773297" fill="none" stroke="#000" stroke-width="1" stroke-linecap="round"/><path d="M 10.773141203 -0.693773297 L 10.786815714 -0.741867036" fill="none" stroke="#000" stroke-width="1" stroke-linecap="round"/><path d="M 10.792366675 -0.688306911 L 10.795356538 -0.674461347" fill="none" stroke="#000" stroke-width="1" stroke-linecap="round"/><path d="M 10.795356538 -0.674461347 L 10.801765028 -0.672639219" fill="none" stroke="#000" stroke-width="1" stroke-linecap="round"/><path d="M 10.801765028 -0.672639219 L 10.811592147 -0.682840525" fill="none" stroke="#000" stroke-width="1" stroke-linecap="round"/><path d="M 10.811592147 -0.682840525 L 10.825266658 -0.730934264" fill="none" stroke="#000" stroke-width="1" stroke-linecap="round"/><path d="M 10.912579562 -1.445522003 L 10.91305438 -1.42864838" fill="none" stroke="#000" stroke-width="1" stroke-linecap="round"/><path d="M 10.91305438 -1.42864838 L 10.895753727 -1.412036106" fill="none" stroke="#000" stroke-width="1" stroke-linecap="round"/><path d="M 10.895753727 -1.412036106 L 10.871736555 -1.423633655" fill="none" stroke="#000" stroke-width="1" stroke-linecap="round"/><path d="M 10.871736555 -1.423633655 L 10.846769747 -1.46897845" fill="none" stroke="#000" stroke-width="1" stroke-linecap="round"/><path d="M 10.846769747 -1.46897845 L 10.845820111 -1.502725696" fill="none" stroke="#000" stroke-width="1" stroke-linecap="round"/><path d="M 10.845820111 -1.502725696 L 10.863120764 -1.51933797" fill="none" stroke="#000" stroke-width="1" stroke-linecap="round"/><path d="M 10.863120764 -1.51933797 L 10.87512935 -1.513539196" fill="none" stroke="#000" stroke-width="1" stroke-linecap="round"/><path d="M 10.849616335 -0.95495743 L 10.851000869 -0.95030627" fill="none" stroke="#000" stroke-width="1" stroke-linecap="round"/><path d="M 10.875460964 -0.868135779 L 10.857000515 -0.930151244" fill="none" stroke="#000" stroke-width="1" stroke-linecap="round"/><path d="M 10.857000515 -0.930151244 L 10.850189273 -0.925964717" fill="none" stroke="#000" stroke-width="1" stroke-linecap="round"/><path d="M 10.86825879 -0.716825497 L 10.874521854 -0.714553287" fill="none" stroke="#000" stroke-width="1" stroke-linecap="round"/><path d="M 10.874521854 -0.714553287 L 10.853206562 -0.655800343" fill="none" stroke="#000" stroke-width="1" stroke-linecap="round"/><path d="M 10.922689621 -0.682362257 L 10.921293633 -0.696458006" fill="none" stroke="#000" stroke-width="1" stroke-linecap="round"/><path d="M 10.921293633 -0.696458006 L 10.902814496 -0.704075201" fill="none" stroke="#000" stroke-width="1" stroke-linecap="round"/><path d="M 10.902814496 -0.704075201 L 10.89189106 -0.695057582" fill="none" stroke="#000" stroke-width="1" stroke-linecap="round"/><path d="M 10.89189106 -0.695057582 L 10.908398449 -0.647692207" fill="none" stroke="#000" stroke-width="1" stroke-linecap="round"/><path d="M 10.908398449 -0.647692207 L 10.897475013 -0.638674588" fill="none" stroke="#000" stroke-width="1" stroke-linecap="round"/><path d="M 10.897475013 -0.638674588 L 10.878995876 -0.646291783" fill="none" stroke="#000" stroke-width="1" stroke-linecap="round"/><path d="M 10.878995876 -0.646291783 L 10.877599888 -0.660387532" fill="none" stroke="#000" stroke-width="1" stroke-linecap="round"/><path d="M 10.88304797 -0.738054464 L 10.881449323 -0.733647993" fill="none" stroke="#000" stroke-width="1" stroke-linecap="round"/><path d="M 10.926508785 -0.899969417 L 10.893816704 -0.998199737" fill="none" stroke="#000" stroke-width="1" stroke-linecap="round"/><path d="M 10.893816704 -0.998199737 L 10.887142709 -0.993797713" fill="none" stroke="#000" stroke-width="1" stroke-linecap="round"/><path d="M 10.957913815 -0.653074017 L 10.987629181 -0.638016804" fill="none" stroke="#000" stroke-width="1" stroke-linecap="round"/><path d="M 10.987629181 -0.638016804 L 10.993279167 -0.649167036" fill="none" stroke="#000" stroke-width="1" stroke-linecap="round"/><path d="M 10.993279167 -0.649167036 L 10.99298608 -0.663328709" fill="none" stroke="#000" stroke-width="1" stroke-linecap="round"/><path d="M 10.99298608 -0.663328709 L 10.97515686 -0.672363037" fill="none" stroke="#000" stroke-width="1" stroke-linecap="round"/><path d="M 10.97515686 -0.672363037 L 10.963563801 -0.664224249" fill="none" stroke="#000" stroke-width="1" stroke-linecap="round"/><path d="M 10.963563801 -0.664224249 L 10.946613842 -0.630773555" fill="none" stroke="#000" stroke-width="1" stroke-linecap="round"/><path d="M 10.946613842 -0.630773555 L 10.946906929 -0.616611881" fill="none" stroke="#000" stroke-width="1" stroke-linecap="round"/><path d="M 10.946906929 -0.616611881 L 10.964736149 -0.607577553" fill="none" stroke="#000" stroke-width="1" stroke-linecap="round"/><path d="M 10.964736149 -0.607577553 L 10.976329209 -0.615716342" fill="none" stroke="#000" stroke-width="1" stroke-linecap="round"/><path d="M 10.951939474 -1.559072259 L 10.981376383 -1.516493387" fill="none" stroke="#000" stroke-width="1" stroke-linecap="round"/><path d="M 10.981376383 -1.516493387 L 10.993911157 -1.511942415" fill="none" stroke="#000" stroke-width="1" stroke-linecap="round"/><path d="M 10.993911157 -1.511942415 L 11.004262252 -1.524129905" fill="none" stroke="#000" stroke-width="1" stroke-linecap="round"/><path d="M 11.004262252 -1.524129905 L 10.999894893 -1.557606832" fill="none" stroke="#000" stroke-width="1" stroke-linecap="round"/><path d="M 10.958256779 -1.027801673 L 10.95997634 -1.023263685" fill="none" stroke="#000" stroke-width="1" stroke-linecap="round"/><path d="M 10.990355246 -0.943092568 L 10.967427769 -1.003599071" fill="none" stroke="#000" stroke-width="1" stroke-linecap="round"/><path d="M 10.967427769 -1.003599071 L 10.960939479 -0.998927657" fill="none" stroke="#000" stroke-width="1" stroke-linecap="round"/><path d="M 11.014613347 -1.536317396 L 10.977817212 -1.589540986" fill="none" stroke="#000" stroke-width="1" stroke-linecap="round"/><path d="M 11.039566963 -1.565473518 L 10.999965001 -1.616643731" fill="none" stroke="#000" stroke-width="1" stroke-linecap="round"/><path d="M 11.03350863 -0.973993045 L 11.008124628 -1.033510761" fill="none" stroke="#000" stroke-width="1" stroke-linecap="round"/><path d="M 11.015805786 -1.596175646 L 11.00964649 -1.629369644" fill="none" stroke="#000" stroke-width="1" stroke-linecap="round"/><path d="M 11.00964649 -1.629369644 L 11.019327979 -1.642095558" fill="none" stroke="#000" stroke-width="1" stroke-linecap="round"/><path d="M 11.019327979 -1.642095558 L 11.032089116 -1.638224471" fill="none" stroke="#000" stroke-width="1" stroke-linecap="round"/><path d="M 11.032089116 -1.638224471 L 11.063770686 -1.597288301" fill="none" stroke="#000" stroke-width="1" stroke-linecap="round"/><path d="M 11.064967218 -0.998657956 L 11.044660017 -1.046272129" fill="none" stroke="#000" stroke-width="1" stroke-linecap="round"/><path d="M 11.044660017 -1.046272129 L 11.033291498 -1.05324269" fill="none" stroke="#000" stroke-width="1" stroke-linecap="round"/><path d="M 11.033291498 -1.05324269 L 11.020708063 -1.043376726" fill="none" stroke="#000" stroke-width="1" stroke-linecap="round"/><path d="M 11.020708063 -1.043376726 L 11.018278229 -1.009703675" fill="none" stroke="#000" stroke-width="1" stroke-linecap="round"/><path d="M 11.036895244 -1.70952704 L 11.08764737 -1.650764139" fill="none" stroke="#000" stroke-width="1" stroke-linecap="round"/><path d="M 11.08764737 -1.650764139 L 11.100598022 -1.647584117" fill="none" stroke="#000" stroke-width="1" stroke-linecap="round"/><path d="M 11.100598022 -1.647584117 L 11.105089986 -1.654197912" fill="none" stroke="#000" stroke-width="1" stroke-linecap="round"/><path d="M 11.105089986 -1.654197912 L 11.101123263 -1.670605524" fill="none" stroke="#000" stroke-width="1" stroke-linecap="round"/><path d="M 11.044828691 -1.676711817 L 11.062796548 -1.703166996" fill="none" stroke="#000" stroke-width="1" stroke-linecap="round"/><path d="M 11.13180927 -1.06999826 L 11.131435637 -1.053122093" fill="none" stroke="#000" stroke-width="1" stroke-linecap="round"/><path d="M 11.131435637 -1.053122093 L 11.113322118 -1.037400112" fill="none" stroke="#000" stroke-width="1" stroke-linecap="round"/><path d="M 11.113322118 -1.037400112 L 11.101620073 -1.043794958" fill="none" stroke="#000" stroke-width="1" stroke-linecap="round"/><path d="M 11.101620073 -1.043794958 L 11.084627455 -1.078701478" fill="none" stroke="#000" stroke-width="1" stroke-linecap="round"/><path d="M 11.084627455 -1.078701478 L 11.085001089 -1.095577645" fill="none" stroke="#000" stroke-width="1" stroke-linecap="round"/><path d="M 11.085001089 -1.095577645 L 11.103114607 -1.111299626" fill="none" stroke="#000" stroke-width="1" stroke-linecap="round"/><path d="M 11.103114607 -1.111299626 L 11.114816652 -1.10490478" fill="none" stroke="#000" stroke-width="1" stroke-linecap="round"/><path d="M 11.114816652 -1.10490478 L 11.120480858 -1.093269273" fill="none" stroke="#000" stroke-width="1" stroke-linecap="round"/><path d="M 11.120480858 -1.093269273 L 11.090291661 -1.067065972" fill="none" stroke="#000" stroke-width="1" stroke-linecap="round"/><path d="M 11.142942303 -1.736029505 L 11.147784649 -1.719858657" fill="none" stroke="#000" stroke-width="1" stroke-linecap="round"/><path d="M 11.147784649 -1.719858657 L 11.135394008 -1.699322049" fill="none" stroke="#000" stroke-width="1" stroke-linecap="round"/><path d="M 11.135394008 -1.699322049 L 11.122291236 -1.701801825" fill="none" stroke="#000" stroke-width="1" stroke-linecap="round"/><path d="M 11.122291236 -1.701801825 L 11.09537356 -1.72977776" fill="none" stroke="#000" stroke-width="1" stroke-linecap="round"/><path d="M 11.09537356 -1.72977776 L 11.090531215 -1.745948607" fill="none" stroke="#000" stroke-width="1" stroke-linecap="round"/><path d="M 11.090531215 -1.745948607 L 11.102921855 -1.766485215" fill="none" stroke="#000" stroke-width="1" stroke-linecap="round"/><path d="M 11.102921855 -1.766485215 L 11.116024627 -1.764005439" fill="none" stroke="#000" stroke-width="1" stroke-linecap="round"/><path d="M 11.116024627 -1.764005439 L 11.124997186 -1.754680128" fill="none" stroke="#000" stroke-width="1" stroke-linecap="round"/><path d="M 11.124997186 -1.754680128 L 11.104346119 -1.720452448" fill="none" stroke="#000" stroke-width="1" stroke-linecap="round"/><path d="M 11.175621038 -1.766545453 L 11.12831843 -1.810694851" fill="none" stroke="#000" stroke-width="1" stroke-linecap="round"/><path d="M 11.152805098 -1.830095014 L 11.13958804 -1.831867383" fill="none" stroke="#000" stroke-width="1" stroke-linecap="round"/><path d="M 11.13958804 -1.831867383 L 11.135831503 -1.824809873" fill="none" stroke="#000" stroke-width="1" stroke-linecap="round"/><path d="M 11.135831503 -1.824809873 L 11.147239473 -1.793035092" fill="none" stroke="#000" stroke-width="1" stroke-linecap="round"/><path d="M 11.215745914 -1.873138013 L 11.222295068 -1.857579954" fill="none" stroke="#000" stroke-width="1" stroke-linecap="round"/><path d="M 11.222295068 -1.857579954 L 11.212179029 -1.835832633" fill="none" stroke="#000" stroke-width="1" stroke-linecap="round"/><path d="M 11.212179029 -1.835832633 L 11.198885848 -1.836892478" fill="none" stroke="#000" stroke-width="1" stroke-linecap="round"/><path d="M 11.198885848 -1.836892478 L 11.169122345 -1.861819333" fill="none" stroke="#000" stroke-width="1" stroke-linecap="round"/><path d="M 11.169122345 -1.861819333 L 11.162573191 -1.877377391" fill="none" stroke="#000" stroke-width="1" stroke-linecap="round"/><path d="M 11.162573191 -1.877377391 L 11.17268923 -1.899124712" fill="none" stroke="#000" stroke-width="1" stroke-linecap="round"/><path d="M 11.17268923 -1.899124712 L 11.185982411 -1.898064868" fill="none" stroke="#000" stroke-width="1" stroke-linecap="round"/><path d="M 11.250917925 -1.921823067 L 11.168092594 -1.983935321" fill="none" stroke="#000" stroke-width="1" stroke-linecap="round"/><path d="M 11.168092594 -1.983935321 L 11.165114841 -1.97651555" fill="none" stroke="#000" stroke-width="1" stroke-linecap="round"/><path d="M 11.226304497 -2.169750095 L 11.318026426 -2.121739103" fill="none" stroke="#000" stroke-width="1" stroke-linecap="round"/><path d="M 11.260777961 -0.308669237 L 11.288823538 -0.326646119" fill="none" stroke="#000" stroke-width="1" stroke-linecap="round"/><path d="M 11.288823538 -0.326646119 L 11.287687106 -0.340765164" fill="none" stroke="#000" stroke-width="1" stroke-linecap="round"/><path d="M 11.287687106 -0.340765164 L 11.274196013 -0.361812501" fill="none" stroke="#000" stroke-width="1" stroke-linecap="round"/><path d="M 11.274196013 -0.361812501 L 11.261841351 -0.368740793" fill="none" stroke="#000" stroke-width="1" stroke-linecap="round"/><path d="M 11.261841351 -0.368740793 L 11.233795774 -0.350763911" fill="none" stroke="#000" stroke-width="1" stroke-linecap="round"/><path d="M 11.233795774 -0.350763911 L 11.287760148 -0.266574563" fill="none" stroke="#000" stroke-width="1" stroke-linecap="round"/><path d="M 11.296370014 -2.091444026 L 11.305331733 -2.077139054" fill="none" stroke="#000" stroke-width="1" stroke-linecap="round"/><path d="M 11.305331733 -2.077139054 L 11.298837929 -2.054049863" fill="none" stroke="#000" stroke-width="1" stroke-linecap="round"/><path d="M 11.298837929 -2.054049863 L 11.285547009 -2.052962041" fill="none" stroke="#000" stroke-width="1" stroke-linecap="round"/><path d="M 11.285547009 -2.052962041 L 11.25216805 -2.072787765" fill="none" stroke="#000" stroke-width="1" stroke-linecap="round"/><path d="M 11.25216805 -2.072787765 L 11.243206332 -2.087092737" fill="none" stroke="#000" stroke-width="1" stroke-linecap="round"/><path d="M 11.243206332 -2.087092737 L 11.249700135 -2.110181928" fill="none" stroke="#000" stroke-width="1" stroke-linecap="round"/><path d="M 11.249700135 -2.110181928 L 11.262991056 -2.111269751" fill="none" stroke="#000" stroke-width="1" stroke-linecap="round"/><path d="M 11.267242413 -0.850914148 L 11.249644448 -0.949353529" fill="none" stroke="#000" stroke-width="1" stroke-linecap="round"/><path d="M 11.249644448 -0.949353529 L 11.282437066 -0.955215851" fill="none" stroke="#000" stroke-width="1" stroke-linecap="round"/><path d="M 11.282437066 -0.955215851 L 11.291195336 -0.944083393" fill="none" stroke="#000" stroke-width="1" stroke-linecap="round"/><path d="M 11.291195336 -0.944083393 L 11.295594827 -0.919473548" fill="none" stroke="#000" stroke-width="1" stroke-linecap="round"/><path d="M 11.295594827 -0.919473548 L 11.291236049 -0.905996161" fill="none" stroke="#000" stroke-width="1" stroke-linecap="round"/><path d="M 11.291236049 -0.905996161 L 11.25844343 -0.900133838" fill="none" stroke="#000" stroke-width="1" stroke-linecap="round"/><path d="M 11.306561185 -2.127740477 L 11.267692451 -2.182952208" fill="none" stroke="#000" stroke-width="1" stroke-linecap="round"/><path d="M 11.26769823 -2.340417341 L 11.272224695 -2.338667673" fill="none" stroke="#000" stroke-width="1" stroke-linecap="round"/><path d="M 11.306593555 -0.857948935 L 11.271560478 -0.902478767" fill="none" stroke="#000" stroke-width="1" stroke-linecap="round"/><path d="M 11.32141484 -0.288146821 L 11.271996192 -0.315859989" fill="none" stroke="#000" stroke-width="1" stroke-linecap="round"/><path d="M 11.292194463 -2.243322861 L 11.327507635 -2.227192328" fill="none" stroke="#000" stroke-width="1" stroke-linecap="round"/><path d="M 11.327507635 -2.227192328 L 11.337952226 -2.213931289" fill="none" stroke="#000" stroke-width="1" stroke-linecap="round"/><path d="M 11.337952226 -2.213931289 L 11.33662576 -2.206047096" fill="none" stroke="#000" stroke-width="1" stroke-linecap="round"/><path d="M 11.33662576 -2.206047096 L 11.323528236 -2.203539746" fill="none" stroke="#000" stroke-width="1" stroke-linecap="round"/><path d="M 11.323528236 -2.203539746 L 11.276444007 -2.225047124" fill="none" stroke="#000" stroke-width="1" stroke-linecap="round"/><path d="M 11.327507635 -2.227192328 L 11.340605159 -2.229699677" fill="none" stroke="#000" stroke-width="1" stroke-linecap="round"/><path d="M 11.340605159 -2.229699677 L 11.341931625 -2.237583871" fill="none" stroke="#000" stroke-width="1" stroke-linecap="round"/><path d="M 11.341931625 -2.237583871 L 11.331487034 -2.250844909" fill="none" stroke="#000" stroke-width="1" stroke-linecap="round"/><path d="M 11.331487034 -2.250844909 L 11.284402805 -2.272352287" fill="none" stroke="#000" stroke-width="1" stroke-linecap="round"/><path d="M 11.287126818 -2.155346343 L 11.326766714 -2.160746897" fill="none" stroke="#000" stroke-width="1" stroke-linecap="round"/><path d="M 11.352192241 -2.307756873 L 11.291839376 -2.331085779" fill="none" stroke="#000" stroke-width="1" stroke-linecap="round"/><path d="M 11.291839376 -2.331085779 L 11.290985133 -2.323136547" fill="none" stroke="#000" stroke-width="1" stroke-linecap="round"/><path d="M 11.343576867 -2.340367993 L 11.356374856 -2.344115447" fill="none" stroke="#000" stroke-width="1" stroke-linecap="round"/><path d="M 11.356374856 -2.344115447 L 11.358075842 -2.368040055" fill="none" stroke="#000" stroke-width="1" stroke-linecap="round"/><path d="M 11.358075842 -2.368040055 L 11.346411844 -2.38024234" fill="none" stroke="#000" stroke-width="1" stroke-linecap="round"/><path d="M 11.346411844 -2.38024234 L 11.306883887 -2.353050241" fill="none" stroke="#000" stroke-width="1" stroke-linecap="round"/><path d="M 11.306883887 -2.353050241 L 11.295219889 -2.365252526" fill="none" stroke="#000" stroke-width="1" stroke-linecap="round"/><path d="M 11.295219889 -2.365252526 L 11.296920875 -2.389177134" fill="none" stroke="#000" stroke-width="1" stroke-linecap="round"/><path d="M 11.296920875 -2.389177134 L 11.309718864 -2.392924588" fill="none" stroke="#000" stroke-width="1" stroke-linecap="round"/><path d="M 11.349934124 -2.474837337 L 11.362372024 -2.463424921" fill="none" stroke="#000" stroke-width="1" stroke-linecap="round"/><path d="M 11.362372024 -2.463424921 L 11.362241124 -2.439440278" fill="none" stroke="#000" stroke-width="1" stroke-linecap="round"/><path d="M 11.362241124 -2.439440278 L 11.349715956 -2.434862932" fill="none" stroke="#000" stroke-width="1" stroke-linecap="round"/><path d="M 11.349715956 -2.434862932 L 11.312271353 -2.445115537" fill="none" stroke="#000" stroke-width="1" stroke-linecap="round"/><path d="M 11.312271353 -2.445115537 L 11.299833452 -2.456527953" fill="none" stroke="#000" stroke-width="1" stroke-linecap="round"/><path d="M 11.299833452 -2.456527953 L 11.299964353 -2.480512595" fill="none" stroke="#000" stroke-width="1" stroke-linecap="round"/><path d="M 11.299964353 -2.480512595 L 11.31248952 -2.485089941" fill="none" stroke="#000" stroke-width="1" stroke-linecap="round"/><path d="M 11.31248952 -2.485089941 L 11.324971055 -2.481672406" fill="none" stroke="#000" stroke-width="1" stroke-linecap="round"/><path d="M 11.324971055 -2.481672406 L 11.324752888 -2.441698002" fill="none" stroke="#000" stroke-width="1" stroke-linecap="round"/><path d="M 11.304886605 -0.350621403 L 11.322739523 -0.35960881" fill="none" stroke="#000" stroke-width="1" stroke-linecap="round"/><path d="M 11.322739523 -0.35960881 L 11.334311138 -0.351439561" fill="none" stroke="#000" stroke-width="1" stroke-linecap="round"/><path d="M 11.334311138 -0.351439561 L 11.356793707 -0.306779354" fill="none" stroke="#000" stroke-width="1" stroke-linecap="round"/><path d="M 11.310732223 -0.921942702 L 11.330510731 -0.924825544" fill="none" stroke="#000" stroke-width="1" stroke-linecap="round"/><path d="M 11.330510731 -0.924825544 L 11.33890647 -0.913417193" fill="none" stroke="#000" stroke-width="1" stroke-linecap="round"/><path d="M 11.33890647 -0.913417193 L 11.346118083 -0.86394" fill="none" stroke="#000" stroke-width="1" stroke-linecap="round"/><path d="M 11.334080967 -0.528341891 L 11.312596649 -0.626006747" fill="none" stroke="#000" stroke-width="1" stroke-linecap="round"/><path d="M 11.312596649 -0.626006747 L 11.345131255 -0.633163711" fill="none" stroke="#000" stroke-width="1" stroke-linecap="round"/><path d="M 11.345131255 -0.633163711 L 11.354323715 -0.622386996" fill="none" stroke="#000" stroke-width="1" stroke-linecap="round"/><path d="M 11.354323715 -0.622386996 L 11.359694795 -0.597970782" fill="none" stroke="#000" stroke-width="1" stroke-linecap="round"/><path d="M 11.359694795 -0.597970782 L 11.355873413 -0.584331283" fill="none" stroke="#000" stroke-width="1" stroke-linecap="round"/><path d="M 11.355873413 -0.584331283 L 11.323338808 -0.577174319" fill="none" stroke="#000" stroke-width="1" stroke-linecap="round"/><path d="M 11.352710919 -0.864900947 L 11.326339575 -0.861057158" fill="none" stroke="#000" stroke-width="1" stroke-linecap="round"/><path d="M 11.326339575 -0.861057158 L 11.317943836 -0.872465508" fill="none" stroke="#000" stroke-width="1" stroke-linecap="round"/><path d="M 11.317943836 -0.872465508 L 11.316140933 -0.884834807" fill="none" stroke="#000" stroke-width="1" stroke-linecap="round"/><path d="M 11.316140933 -0.884834807 L 11.320930865 -0.898165052" fill="none" stroke="#000" stroke-width="1" stroke-linecap="round"/><path d="M 11.320930865 -0.898165052 L 11.340709373 -0.901047895" fill="none" stroke="#000" stroke-width="1" stroke-linecap="round"/><path d="M 11.362744679 -0.309775156 L 11.338940789 -0.297791947" fill="none" stroke="#000" stroke-width="1" stroke-linecap="round"/><path d="M 11.338940789 -0.297791947 L 11.327369174 -0.305961196" fill="none" stroke="#000" stroke-width="1" stroke-linecap="round"/><path d="M 11.327369174 -0.305961196 L 11.321748532 -0.317126248" fill="none" stroke="#000" stroke-width="1" stroke-linecap="round"/><path d="M 11.321748532 -0.317126248 L 11.322078862 -0.331287102" fill="none" stroke="#000" stroke-width="1" stroke-linecap="round"/><path d="M 11.322078862 -0.331287102 L 11.33993178 -0.340274509" fill="none" stroke="#000" stroke-width="1" stroke-linecap="round"/><path d="M 11.373122493 -0.536930247 L 11.33635265 -0.580037105" fill="none" stroke="#000" stroke-width="1" stroke-linecap="round"/><path d="M 11.405145968 -0.352819647 L 11.400676674 -0.324844997" fill="none" stroke="#000" stroke-width="1" stroke-linecap="round"/><path d="M 11.400676674 -0.324844997 L 11.388076172 -0.320511063" fill="none" stroke="#000" stroke-width="1" stroke-linecap="round"/><path d="M 11.388076172 -0.320511063 L 11.377710317 -0.330164454" fill="none" stroke="#000" stroke-width="1" stroke-linecap="round"/><path d="M 11.377710317 -0.330164454 L 11.365513506 -0.365625528" fill="none" stroke="#000" stroke-width="1" stroke-linecap="round"/><path d="M 11.365513506 -0.365625528 L 11.367748153 -0.379612853" fill="none" stroke="#000" stroke-width="1" stroke-linecap="round"/><path d="M 11.367748153 -0.379612853 L 11.380348654 -0.383946787" fill="none" stroke="#000" stroke-width="1" stroke-linecap="round"/><path d="M 11.380348654 -0.383946787 L 11.401080364 -0.364640005" fill="none" stroke="#000" stroke-width="1" stroke-linecap="round"/><path d="M 11.402644897 -0.908348616 L 11.386824549 -0.931849089" fill="none" stroke="#000" stroke-width="1" stroke-linecap="round"/><path d="M 11.386824549 -0.931849089 L 11.373569908 -0.930481567" fill="none" stroke="#000" stroke-width="1" stroke-linecap="round"/><path d="M 11.373569908 -0.930481567 L 11.368225441 -0.91736381" fill="none" stroke="#000" stroke-width="1" stroke-linecap="round"/><path d="M 11.368225441 -0.91736381 L 11.372074 -0.880061818" fill="none" stroke="#000" stroke-width="1" stroke-linecap="round"/><path d="M 11.372074 -0.880061818 L 11.379984174 -0.868311581" fill="none" stroke="#000" stroke-width="1" stroke-linecap="round"/><path d="M 11.379984174 -0.868311581 L 11.393238815 -0.869679103" fill="none" stroke="#000" stroke-width="1" stroke-linecap="round"/><path d="M 11.393238815 -0.869679103 L 11.40392775 -0.895914619" fill="none" stroke="#000" stroke-width="1" stroke-linecap="round"/><path d="M 11.412481325 -0.543935281 L 11.404148432 -0.593236021" fill="none" stroke="#000" stroke-width="1" stroke-linecap="round"/><path d="M 11.404148432 -0.593236021 L 11.395495886 -0.604450848" fill="none" stroke="#000" stroke-width="1" stroke-linecap="round"/><path d="M 11.395495886 -0.604450848 L 11.375787915 -0.601119774" fill="none" stroke="#000" stroke-width="1" stroke-linecap="round"/><path d="M 11.380752344 -0.423741795 L 11.413277176 -0.32917893" fill="none" stroke="#000" stroke-width="1" stroke-linecap="round"/><path d="M 11.406231656 -0.580910836 L 11.386523685 -0.577579762" fill="none" stroke="#000" stroke-width="1" stroke-linecap="round"/><path d="M 11.386523685 -0.577579762 L 11.382037585 -0.564144219" fill="none" stroke="#000" stroke-width="1" stroke-linecap="round"/><path d="M 11.382037585 -0.564144219 L 11.384120808 -0.551819034" fill="none" stroke="#000" stroke-width="1" stroke-linecap="round"/><path d="M 11.384120808 -0.551819034 L 11.392773355 -0.540604208" fill="none" stroke="#000" stroke-width="1" stroke-linecap="round"/><path d="M 11.392773355 -0.540604208 L 11.419050649 -0.545045639" fill="none" stroke="#000" stroke-width="1" stroke-linecap="round"/><path d="M 11.406493456 -0.871046624 L 11.396230631 -0.970518602" fill="none" stroke="#000" stroke-width="1" stroke-linecap="round"/><path d="M 11.452679894 -0.339768048 L 11.439591303 -0.400882194" fill="none" stroke="#000" stroke-width="1" stroke-linecap="round"/><path d="M 11.439591303 -0.400882194 L 11.433076535 -0.39948695" fill="none" stroke="#000" stroke-width="1" stroke-linecap="round"/><path d="M 11.434355866 -0.425327852 L 11.435337511 -0.420744291" fill="none" stroke="#000" stroke-width="1" stroke-linecap="round"/><path d="M 11.470210836 -0.576402118 L 11.459538558 -0.550159822" fill="none" stroke="#000" stroke-width="1" stroke-linecap="round"/><path d="M 11.459538558 -0.550159822 L 11.446284788 -0.548783887" fill="none" stroke="#000" stroke-width="1" stroke-linecap="round"/><path d="M 11.446284788 -0.548783887 L 11.438367156 -0.560529099" fill="none" stroke="#000" stroke-width="1" stroke-linecap="round"/><path d="M 11.438367156 -0.560529099 L 11.434494918 -0.597828641" fill="none" stroke="#000" stroke-width="1" stroke-linecap="round"/><path d="M 11.434494918 -0.597828641 L 11.439831057 -0.610949789" fill="none" stroke="#000" stroke-width="1" stroke-linecap="round"/><path d="M 11.439831057 -0.610949789 L 11.453084827 -0.612325724" fill="none" stroke="#000" stroke-width="1" stroke-linecap="round"/><path d="M 11.453084827 -0.612325724 L 11.46892009 -0.588835299" fill="none" stroke="#000" stroke-width="1" stroke-linecap="round"/><path d="M 11.44716522 -0.874367759 L 11.443075875 -0.936733834" fill="none" stroke="#000" stroke-width="1" stroke-linecap="round"/><path d="M 11.443075875 -0.936733834 L 11.436427651 -0.936297909" fill="none" stroke="#000" stroke-width="1" stroke-linecap="round"/><path d="M 11.441440137 -0.961680263 L 11.441746838 -0.957002808" fill="none" stroke="#000" stroke-width="1" stroke-linecap="round"/><path d="M 11.462466359 -0.651001201 L 11.472792328 -0.551535758" fill="none" stroke="#000" stroke-width="1" stroke-linecap="round"/><path d="M 11.472547608 -0.938632664 L 11.474184223 -0.888659456" fill="none" stroke="#000" stroke-width="1" stroke-linecap="round"/><path d="M 11.474184223 -0.888659456 L 11.481252307 -0.876384233" fill="none" stroke="#000" stroke-width="1" stroke-linecap="round"/><path d="M 11.481252307 -0.876384233 L 11.494570167 -0.876820391" fill="none" stroke="#000" stroke-width="1" stroke-linecap="round"/><path d="M 11.494570167 -0.876820391 L 11.507069719 -0.902243153" fill="none" stroke="#000" stroke-width="1" stroke-linecap="round"/><path d="M 11.473015893 -0.407682934 L 11.478280595 -0.357960878" fill="none" stroke="#000" stroke-width="1" stroke-linecap="round"/><path d="M 11.478280595 -0.357960878 L 11.486222234 -0.346231885" fill="none" stroke="#000" stroke-width="1" stroke-linecap="round"/><path d="M 11.486222234 -0.346231885 L 11.499473162 -0.347634928" fill="none" stroke="#000" stroke-width="1" stroke-linecap="round"/><path d="M 11.499473162 -0.347634928 L 11.510091739 -0.373899" fill="none" stroke="#000" stroke-width="1" stroke-linecap="round"/><path d="M 11.513496092 -0.554425819 L 11.510593251 -0.616858371" fill="none" stroke="#000" stroke-width="1" stroke-linecap="round"/><path d="M 11.510593251 -0.616858371 L 11.503937941 -0.616548928" fill="none" stroke="#000" stroke-width="1" stroke-linecap="round"/><path d="M 11.507888026 -0.877256549 L 11.505842258 -0.939723059" fill="none" stroke="#000" stroke-width="1" stroke-linecap="round"/><path d="M 11.51272409 -0.349037972 L 11.506143213 -0.411190542" fill="none" stroke="#000" stroke-width="1" stroke-linecap="round"/><path d="M 11.509432114 -0.641831392 L 11.509649827 -0.63714895" fill="none" stroke="#000" stroke-width="1" stroke-linecap="round"/><path d="M 11.574359079 -0.580725692 L 11.560946497 -0.555725846" fill="none" stroke="#000" stroke-width="1" stroke-linecap="round"/><path d="M 11.560946497 -0.555725846 L 11.547621579 -0.555725846" fill="none" stroke="#000" stroke-width="1" stroke-linecap="round"/><path d="M 11.547621579 -0.555725846 L 11.541002952 -0.568225769" fill="none" stroke="#000" stroke-width="1" stroke-linecap="round"/><path d="M 11.541002952 -0.568225769 L 11.541178281 -0.618225462" fill="none" stroke="#000" stroke-width="1" stroke-linecap="round"/><path d="M 11.548924728 -0.890409239 L 11.555356375 -0.877788905" fill="none" stroke="#000" stroke-width="1" stroke-linecap="round"/><path d="M 11.555356375 -0.877788905 L 11.575340499 -0.877421569" fill="none" stroke="#000" stroke-width="1" stroke-linecap="round"/><path d="M 11.575340499 -0.877421569 L 11.582231602 -0.889797012" fill="none" stroke="#000" stroke-width="1" stroke-linecap="round"/><path d="M 11.582231602 -0.889797012 L 11.549613914 -0.927902905" fill="none" stroke="#000" stroke-width="1" stroke-linecap="round"/><path d="M 11.549613914 -0.927902905 L 11.556505017 -0.940278349" fill="none" stroke="#000" stroke-width="1" stroke-linecap="round"/><path d="M 11.556505017 -0.940278349 L 11.576489141 -0.939911013" fill="none" stroke="#000" stroke-width="1" stroke-linecap="round"/><path d="M 11.576489141 -0.939911013 L 11.582920787 -0.927290679" fill="none" stroke="#000" stroke-width="1" stroke-linecap="round"/><path d="M 11.55426303 -0.363625033 L 11.560174004 -0.350752609" fill="none" stroke="#000" stroke-width="1" stroke-linecap="round"/><path d="M 11.560174004 -0.350752609 L 11.580126464 -0.349569597" fill="none" stroke="#000" stroke-width="1" stroke-linecap="round"/><path d="M 11.580126464 -0.349569597 L 11.587517129 -0.361653345" fill="none" stroke="#000" stroke-width="1" stroke-linecap="round"/><path d="M 11.587517129 -0.361653345 L 11.556482565 -0.401059291" fill="none" stroke="#000" stroke-width="1" stroke-linecap="round"/><path d="M 11.556482565 -0.401059291 L 11.56387323 -0.413143039" fill="none" stroke="#000" stroke-width="1" stroke-linecap="round"/><path d="M 11.56387323 -0.413143039 L 11.583825689 -0.411960027" fill="none" stroke="#000" stroke-width="1" stroke-linecap="round"/><path d="M 11.583825689 -0.411960027 L 11.589736664 -0.399087603" fill="none" stroke="#000" stroke-width="1" stroke-linecap="round"/><path d="M 11.574490576 -0.618225462 L 11.574271415 -0.555725846" fill="none" stroke="#000" stroke-width="1" stroke-linecap="round"/><path d="M 11.61609033 -0.566861026 L 11.621712729 -0.553859967" fill="none" stroke="#000" stroke-width="1" stroke-linecap="round"/><path d="M 11.621712729 -0.553859967 L 11.641633839 -0.552232231" fill="none" stroke="#000" stroke-width="1" stroke-linecap="round"/><path d="M 11.641633839 -0.552232231 L 11.64929218 -0.564148133" fill="none" stroke="#000" stroke-width="1" stroke-linecap="round"/><path d="M 11.64929218 -0.564148133 L 11.619144242 -0.604236467" fill="none" stroke="#000" stroke-width="1" stroke-linecap="round"/><path d="M 11.619144242 -0.604236467 L 11.626802583 -0.616152369" fill="none" stroke="#000" stroke-width="1" stroke-linecap="round"/><path d="M 11.626802583 -0.616152369 L 11.646723694 -0.614524634" fill="none" stroke="#000" stroke-width="1" stroke-linecap="round"/><path d="M 11.646723694 -0.614524634 L 11.652346093 -0.601523575" fill="none" stroke="#000" stroke-width="1" stroke-linecap="round"/><path d="M 11.747260204 -0.401018574 L 11.745206943 -0.415033674" fill="none" stroke="#000" stroke-width="1" stroke-linecap="round"/><path d="M 11.745206943 -0.415033674 L 11.720120342 -0.424027281" fill="none" stroke="#000" stroke-width="1" stroke-linecap="round"/><path d="M 11.720120342 -0.424027281 L 11.709630302 -0.414508984" fill="none" stroke="#000" stroke-width="1" stroke-linecap="round"/><path d="M 11.709630302 -0.414508984 L 11.684319965 -0.343908794" fill="none" stroke="#000" stroke-width="1" stroke-linecap="round"/><path d="M 11.703284526 -0.869142972 L 11.690035491 -0.870563772" fill="none" stroke="#000" stroke-width="1" stroke-linecap="round"/><path d="M 11.696660009 -0.869853372 L 11.707322674 -0.969283285" fill="none" stroke="#000" stroke-width="1" stroke-linecap="round"/><path d="M 11.707322674 -0.969283285 L 11.699365323 -0.957564946" fill="none" stroke="#000" stroke-width="1" stroke-linecap="round"/><path d="M 11.768310679 -0.532814993 L 11.755296837 -0.535677779" fill="none" stroke="#000" stroke-width="1" stroke-linecap="round"/><path d="M 11.774095615 -0.621134528 L 11.783288075 -0.631911242" fill="none" stroke="#000" stroke-width="1" stroke-linecap="round"/><path d="M 11.783288075 -0.631911242 L 11.761803758 -0.534246386" fill="none" stroke="#000" stroke-width="1" stroke-linecap="round"/><path d="M 11.855449467 -0.358404086 L 11.82740389 -0.376380968" fill="none" stroke="#000" stroke-width="1" stroke-linecap="round"/><path d="M 11.82740389 -0.376380968 L 11.80716725 -0.344809962" fill="none" stroke="#000" stroke-width="1" stroke-linecap="round"/><path d="M 11.80716725 -0.344809962 L 11.829603711 -0.330428456" fill="none" stroke="#000" stroke-width="1" stroke-linecap="round"/><path d="M 11.829603711 -0.330428456 L 11.82846728 -0.316309411" fill="none" stroke="#000" stroke-width="1" stroke-linecap="round"/><path d="M 11.82846728 -0.316309411 L 11.808230639 -0.284738406" fill="none" stroke="#000" stroke-width="1" stroke-linecap="round"/><path d="M 11.808230639 -0.284738406 L 11.795875977 -0.277810114" fill="none" stroke="#000" stroke-width="1" stroke-linecap="round"/><path d="M 11.795875977 -0.277810114 L 11.779048631 -0.288596243" fill="none" stroke="#000" stroke-width="1" stroke-linecap="round"/><path d="M 11.779048631 -0.288596243 L 11.780185063 -0.302715288" fill="none" stroke="#000" stroke-width="1" stroke-linecap="round"/><path d="M 11.827973985 -0.951845016 L 11.795181367 -0.957707338" fill="none" stroke="#000" stroke-width="1" stroke-linecap="round"/><path d="M 11.795181367 -0.957707338 L 11.78858213 -0.92079257" fill="none" stroke="#000" stroke-width="1" stroke-linecap="round"/><path d="M 11.78858213 -0.92079257 L 11.814816225 -0.916102712" fill="none" stroke="#000" stroke-width="1" stroke-linecap="round"/><path d="M 11.814816225 -0.916102712 L 11.819175003 -0.902625325" fill="none" stroke="#000" stroke-width="1" stroke-linecap="round"/><path d="M 11.819175003 -0.902625325 L 11.812575766 -0.865710558" fill="none" stroke="#000" stroke-width="1" stroke-linecap="round"/><path d="M 11.812575766 -0.865710558 L 11.803817496 -0.8545781" fill="none" stroke="#000" stroke-width="1" stroke-linecap="round"/><path d="M 11.803817496 -0.8545781 L 11.784141925 -0.858095493" fill="none" stroke="#000" stroke-width="1" stroke-linecap="round"/><path d="M 11.784141925 -0.858095493 L 11.779783147 -0.87157288" fill="none" stroke="#000" stroke-width="1" stroke-linecap="round"/></g></svg>